<svg width="34" height="33" xmlns="http://www.w3.org/2000/svg" version="1.1">

 <g>
  <g>
   <g fill="#ffffff" transform="matrix(1.0985, 0, 0, 1.0985, 40.733, 130.09)">
    <path d="m-7.24479,-107.26116l-2.2831,-1.354c-1.0689,-0.6361 -1.7296,-1.8088 -1.7296,-3.0775l0,-2.7079c0,-0.55437 -0.2456,-1.0768 -0.6642,-1.425c-1.2453,-1.0341 -2.6463,-1.8728 -4.1614,-2.4733c-0.5051,-0.199 -1.0689,-0.15991 -1.5359,0.11727l-2.2865,1.3575c-1.0689,0.63611 -2.3869,0.63611 -3.4592,0l-2.2866,-1.3575c-0.467,-0.27718 -1.0343,-0.31983 -1.5359,-0.11727c-1.5186,0.60057 -2.9161,1.4392 -4.158,2.4698c-0.41856,0.34825 -0.66416,0.87064 -0.66416,1.425l0,2.7079c0,1.2686 -0.65725,2.4414 -1.7296,3.0775l-2.2831,1.3539c-0.467,0.2772 -0.78524,0.757 -0.86826,1.3042c-0.12799,0.8067 -0.19026,1.6312 -0.19026,2.4698c0,0.8387 0.06227,1.6631 0.1868,2.4662c0.08302,0.5473 0.40127,1.0306 0.86826,1.3078l2.2831,1.3539c1.0689,0.6361 1.7296,1.8088 1.7296,3.0775l0,2.7079c0,0.5543 0.2456,1.0767 0.66416,1.425c1.2419,1.0305 2.6428,1.8692 4.158,2.4698c0.50503,0.199 1.0689,0.1599 1.5359,-0.1173l2.2865,-1.3575c1.0689,-0.6361 2.3868,-0.6361 3.4592,0l2.2865,1.3575c0.467,0.2772 1.0343,0.3163 1.5359,0.1173c1.5152,-0.6006 2.9161,-1.4393 4.158,-2.4698c0.4186,-0.3483 0.6642,-0.8707 0.6642,-1.425l0,-2.7079c0,-1.2687 0.6607,-2.4414 1.7296,-3.0775l2.283,-1.3539c0.467,-0.2772 0.7853,-0.7569 0.8683,-1.3078c0.1211,-0.8031 0.1868,-1.6275 0.1868,-2.4662c0,-0.8386 -0.0623,-1.6631 -0.1868,-2.4662c-0.0796,-0.5473 -0.3944,-1.027 -0.8613,-1.3042l0.00006,0zm-14.39,13.305c-5.1231,0 -9.2776,-4.268 -9.2776,-9.5309c0,-5.263 4.1545,-9.5309 9.2776,-9.5309c5.123,0 9.2775,4.2679 9.2775,9.5309c0,5.2629 -4.1545,9.5309 -9.2775,9.5309z"/>
   </g>
  </g>
 </g>
</svg>